<?xml version="1.0" encoding="UTF-8"?>
<svg id="Layer_1" data-name="Layer 1" xmlns="http://www.w3.org/2000/svg" viewBox="0 0 154.54 47.86">
  <defs>
    <style>
      .cls-1 {
        fill: #2ab70d;
      }
    </style>
  </defs>
  <path class="cls-1" d="M24.37,47.25L13.94,28.83h-4.47v18.41H0V0H17.73c3.65,0,6.77,.64,9.34,1.93,2.57,1.29,4.5,3.03,5.79,5.21,1.29,2.19,1.93,4.64,1.93,7.34,0,3.12-.9,5.93-2.71,8.43-1.8,2.51-4.49,4.23-8.05,5.18l11.3,19.16h-10.97ZM9.48,21.73h7.92c2.57,0,4.49-.62,5.75-1.86,1.26-1.24,1.89-2.97,1.89-5.18s-.63-3.84-1.89-5.04c-1.26-1.19-3.18-1.79-5.75-1.79h-7.92v13.87Z"/>
  <path class="cls-1" d="M72.9,31.34h-27.41c.22,2.71,1.17,4.83,2.84,6.36,1.67,1.54,3.72,2.3,6.16,2.3,3.52,0,6.02-1.51,7.51-4.53h10.22c-1.08,3.61-3.16,6.58-6.23,8.9-3.07,2.32-6.84,3.48-11.3,3.48-3.61,0-6.85-.8-9.71-2.4-2.87-1.6-5.1-3.87-6.7-6.81-1.6-2.93-2.4-6.32-2.4-10.15s.79-7.29,2.37-10.23c1.58-2.93,3.79-5.19,6.63-6.77s6.11-2.37,9.82-2.37,6.76,.77,9.58,2.3c2.82,1.54,5.01,3.71,6.57,6.53,1.56,2.82,2.34,6.06,2.34,9.72,0,1.35-.09,2.57-.27,3.65Zm-9.54-6.36c-.04-2.44-.92-4.39-2.64-5.86s-3.81-2.2-6.3-2.2c-2.35,0-4.32,.71-5.92,2.13-1.6,1.42-2.58,3.4-2.95,5.93h17.8Z"/>
  <path class="cls-1" d="M84.34,0V29.24c0,3.21,.83,5.65,2.5,7.34,1.67,1.69,4.02,2.54,7.04,2.54s5.44-.84,7.11-2.54c1.67-1.69,2.5-4.14,2.5-7.34V0h9.54V29.17c0,4.02-.87,7.41-2.61,10.19-1.74,2.77-4.06,4.86-6.97,6.26-2.91,1.4-6.15,2.1-9.71,2.1s-6.71-.7-9.58-2.1-5.13-3.49-6.8-6.26c-1.67-2.78-2.5-6.17-2.5-10.19V0h9.48Z"/>
  <path class="cls-1" d="M154.54,22.18c0,3.83-.77,7.21-2.25,10.17-1.53,2.97-3.58,5.27-6.19,6.85-2.56,1.64-5.47,2.45-8.69,2.45-2.76,0-5.16-.56-7.26-1.69-1.69-.92-3.12-2.05-4.29-3.32-.31-.31-.56-.61-.82-.92v12.12h-9.46V28.52c-.41-1.99-.26-4.09,.51-5.98,1.07-2.76,3.27-4.91,6.08-5.93,1.28-.46,2.45-.61,3.37-.77,.36-.05,.72-.05,1.07-.15,1.07-.26,2.4-1.12,3.63-2.05l-1.58-2.35,16.56-1.07-7.31,14.88-1.99-2.97c-1.89,1.38-4.19,2.91-7.11,3.53-.66,.15-1.28,.26-1.94,.36-.36,.05-.77,.1-1.02,.15v.82c.15,.46,.36,.82,.56,1.23,.92,1.64,2.15,2.91,3.68,3.78,1.48,.92,3.12,1.33,4.81,1.33,1.79,0,3.43-.46,4.91-1.33,1.53-.92,2.76-2.2,3.68-3.89,.92-1.64,1.38-3.63,1.38-5.93,0-1.23-.15-2.35-.41-3.37l4.45-9.1,.72-1.43c1.02,1.07,1.89,2.35,2.66,3.78,1.48,2.91,2.25,6.29,2.25,10.12Z"/>
</svg>