<?xml version="1.0" encoding="utf-8"?>
<!-- Generator: Adobe Illustrator 27.0.0, SVG Export Plug-In . SVG Version: 6.00 Build 0)  -->
<svg version="1.1" id="Layer_1" xmlns="http://www.w3.org/2000/svg" xmlns:xlink="http://www.w3.org/1999/xlink" x="0px" y="0px"
	 viewBox="0 0 16 16" style="enable-background:new 0 0 16 16;" xml:space="preserve">
<style type="text/css">
	.st0{fill:#FFFFFF;}
</style>
<path class="st0" d="M5,8c0,0.6-0.4,1-1,1S3,8.6,3,8s0.4-1,1-1S5,7.4,5,8 M9,8c0,0.6-0.4,1-1,1S7,8.6,7,8s0.4-1,1-1S9,7.4,9,8 M12,9
	c0.6,0,1-0.4,1-1s-0.4-1-1-1s-1,0.4-1,1S11.4,9,12,9"/>
<path class="st0" d="M2.2,15.8L2.2,15.8c1.8-0.4,3-0.8,3.5-1.1C6.4,14.9,7.2,15,8,15c4.4,0,8-3.1,8-7s-3.6-7-8-7S0,4.1,0,8
	c0,1.8,0.7,3.4,2,4.6c-0.1,0.8-0.3,1.6-0.5,2.3l0,0c-0.1,0.2-0.2,0.4-0.2,0.6c-0.1,0.2,0.1,0.4,0.3,0.4C1.7,15.9,1.9,15.8,2.2,15.8
	 M3,12.7c0-0.3-0.1-0.6-0.3-0.8C1.6,10.8,1,9.5,1,8c0-3.2,3-6,7-6s7,2.8,7,6s-3,6-7,6c-0.7,0-1.4-0.1-2.1-0.3
	c-0.2-0.1-0.5,0-0.7,0.1C4.8,14,4,14.4,2.6,14.7C2.8,14,2.9,13.4,3,12.7"/>
</svg>
