<?xml version="1.0" encoding="utf-8"?>
<!-- Generator: Adobe Illustrator 27.0.0, SVG Export Plug-In . SVG Version: 6.00 Build 0)  -->
<svg version="1.1" id="Layer_1" xmlns="http://www.w3.org/2000/svg" xmlns:xlink="http://www.w3.org/1999/xlink" x="0px" y="0px"
	 viewBox="0 0 16 16" style="enable-background:new 0 0 16 16;" xml:space="preserve">
<style type="text/css">
	.st0{fill:#FFFFFF;}
</style>
<path class="st0" d="M14,3c0.6,0,1,0.4,1,1v8c0,0.6-0.4,1-1,1H2c-0.6,0-1-0.4-1-1V4c0-0.6,0.4-1,1-1H14z M2,2C0.9,2,0,2.9,0,4v8
	c0,1.1,0.9,2,2,2h12c1.1,0,2-0.9,2-2V4c0-1.1-0.9-2-2-2H2z"/>
<path class="st0" d="M2,5.5C2,5.2,2.2,5,2.5,5h2C4.8,5,5,5.2,5,5.5v1C5,6.8,4.8,7,4.5,7h-2C2.2,7,2,6.8,2,6.5V5.5z M2,8.5
	C2,8.2,2.2,8,2.5,8h5C7.8,8,8,8.2,8,8.5S7.8,9,7.5,9h-5C2.2,9,2,8.8,2,8.5 M2,10.5C2,10.2,2.2,10,2.5,10h1C3.8,10,4,10.2,4,10.5
	S3.8,11,3.5,11h-1C2.2,11,2,10.8,2,10.5 M5,10.5C5,10.2,5.2,10,5.5,10h1C6.8,10,7,10.2,7,10.5S6.8,11,6.5,11h-1
	C5.2,11,5,10.8,5,10.5 M8,10.5C8,10.2,8.2,10,8.5,10h1c0.3,0,0.5,0.2,0.5,0.5S9.8,11,9.5,11h-1C8.2,11,8,10.8,8,10.5 M11,10.5
	c0-0.3,0.2-0.5,0.5-0.5h1c0.3,0,0.5,0.2,0.5,0.5S12.8,11,12.5,11h-1C11.2,11,11,10.8,11,10.5"/>
</svg>
